<svg width="505" height="226" viewBox="0 0 505 226" fill="none" xmlns="http://www.w3.org/2000/svg">
<path d="M136 226H31V224.008C31 214.613 38.5679 207 47.9062 207H119.094C128.428 207 136 214.613 136 224.008V226Z" fill="url(#paint0_linear_11_14)"/>
<path d="M67.5134 174.831C52.4767 174.831 40.2845 162.523 40.2845 147.341V112.274H51.5139C61.5239 112.274 70.2682 117.734 75 125.856V121.61C75 92.0018 51.2261 68 21.8994 68H0V136.39C0 165.998 23.7738 190 53.1016 190H75V174.831H67.5134Z" fill="url(#paint1_linear_11_14)"/>
<path d="M97.4866 174.831C112.523 174.831 124.716 162.523 124.716 147.341V112.274H113.486C103.476 112.274 94.7318 117.734 90 125.856V121.61C90 92.0018 113.774 68 143.101 68H165V136.39C165 165.998 141.226 190 111.898 190H90V174.831H97.4866Z" fill="url(#paint2_linear_11_14)"/>
<path d="M99.5183 60.2956L82.4985 78L65.4788 60.2956C54.1737 48.5374 54.1737 29.4667 65.4788 17.7034L82.4985 0L99.5183 17.7034C110.827 29.4667 110.827 48.5374 99.5183 60.2956Z" fill="url(#paint3_linear_11_14)"/>
<path d="M232.983 91.45C239.707 92.516 243.52 96.616 243.52 102.807C243.52 110.802 237.124 114.246 222.692 114.041C219.781 114 216.952 114.041 214.615 114.041V113.426C215.353 113.385 217.28 113.426 217.28 111.991C217.526 100.306 217.403 88.539 217.403 76.854C217.403 75.255 215.968 75.255 214.697 75.255V74.599L214.738 74.558H228.76C234.049 74.558 239.871 76.075 240.035 81.938C240.158 86.53 237.739 90.056 232.983 91.45ZM222.815 75.255C222.733 80.093 222.692 86.161 222.692 90.999C224.127 91.04 228.268 91.04 229.662 90.917C233.188 90.63 234.787 87.186 234.705 82.471C234.664 78.945 232.532 75.255 229.334 75.255H222.815ZM237.985 102.479C238.067 96.37 235.074 92.762 229.662 92.434C228.227 92.352 224.209 92.352 222.692 92.393C222.692 94.238 222.692 96.001 222.692 97.764L222.733 107.973C222.733 109.695 222.733 111.499 222.733 113.344C233.106 113.549 237.903 110.146 237.985 102.479ZM250.121 85.833C248.399 85.833 247.005 84.357 247.005 82.594C247.005 80.872 248.399 79.437 250.121 79.437C251.843 79.437 253.237 80.872 253.237 82.594C253.237 84.357 251.843 85.833 250.121 85.833ZM256.107 113.426V114.041C252.417 114.082 248.768 114.082 245.078 114.041V113.426C246.103 113.385 247.661 113.426 247.661 112.114C247.784 105.021 247.784 97.969 247.784 90.876C247.784 89.277 245.939 89.318 245.078 89.277V88.621C247.825 88.621 250.49 88.58 253.237 88.621C253.114 96.411 253.114 104.16 253.196 111.95C253.196 113.426 255.164 113.385 256.107 113.426ZM268.085 113.426V114.041C264.395 114.082 260.746 114.082 257.056 114.041V113.426C257.794 113.385 259.721 113.426 259.721 111.991C259.967 100.306 259.844 88.539 259.844 76.854C259.844 75.255 258.409 75.255 257.138 75.255V74.599L257.179 74.558C259.885 74.599 262.55 74.558 265.256 74.558C265.051 86.94 265.051 99.486 265.174 111.827C265.215 113.426 267.183 113.385 268.085 113.426ZM296.081 113.385V114.041C293.334 114.082 290.628 114.041 287.922 114.041C287.922 112.811 287.922 111.581 287.963 110.31C286.323 113.467 283.207 114.902 280.378 114.902C273.695 114.902 270.251 108.588 269.964 102.028C269.718 95.017 273.121 87.719 280.255 87.719C283.412 87.719 286.077 88.99 288.004 92.27C287.963 87.104 287.963 81.979 287.963 76.854C287.963 75.255 286.241 75.255 285.257 75.255V74.558C287.963 74.599 290.669 74.558 293.416 74.558C293.211 86.981 293.334 99.404 293.334 111.786C293.334 113.426 295.22 113.385 296.081 113.385ZM276.196 102.438C276.442 110.269 279.312 113.016 282.141 113.016C284.765 113.016 287.348 110.761 287.963 107.973C288.004 103.34 288.004 98.707 288.004 94.115C286.692 90.958 284.027 89.523 282.264 89.523C277.877 89.523 275.991 96.206 276.196 102.438ZM323.823 113.385V114.041H315.664C315.705 112.401 315.746 110.761 315.746 109.162C314.557 112.401 312.179 114.902 308.161 114.943C302.544 114.943 300.412 111.212 300.248 106.046C300.084 101.003 300.248 95.919 300.207 90.835C300.166 89.523 298.28 89.277 297.337 89.277H297.296V88.58H308.325V89.277H308.284C307.3 89.277 305.783 89.277 305.742 90.835C305.66 95.878 305.619 100.88 305.619 105.964C305.619 108.342 305.414 113.672 308.899 113.672C313.327 113.672 315.664 107.604 315.787 103.873C315.787 99.486 315.746 95.14 315.705 90.712C315.705 89.441 313.573 89.277 312.835 89.277L312.794 88.621C312.794 88.621 312.794 88.58 312.835 88.58H323.823V89.277C323.044 89.277 321.281 89.441 321.281 90.671C321.117 97.682 321.117 104.734 321.117 111.786C321.117 113.098 322.962 113.344 323.823 113.385ZM351.57 113.385V114.041H340.541V113.385C341.238 113.385 343.124 113.385 343.124 112.032C343.247 106.907 343.288 101.741 343.288 96.616C343.288 94.197 343.493 88.908 339.967 88.949C335.539 89.031 333.202 94.976 333.12 98.707C333.12 103.094 333.12 107.522 333.161 111.95C333.161 113.385 335.129 113.385 336.072 113.385V114.041H325.043V113.385C326.068 113.385 327.626 113.385 327.626 112.073C327.749 105.021 327.749 97.928 327.749 90.876C327.749 89.277 325.904 89.277 325.043 89.277V88.58H333.202L333.12 93.582C334.35 90.302 336.81 87.719 340.787 87.719C346.363 87.719 348.454 91.368 348.618 96.534C348.782 101.577 348.7 106.743 348.7 111.786C348.7 113.385 350.668 113.385 351.57 113.385ZM376.898 83.537C376.898 81.856 378.087 80.995 379.358 80.995C380.834 80.995 382.392 82.184 382.228 84.644C381.982 88.375 379.358 91.737 375.627 92.229C380.547 99.609 373.987 107.153 365.664 107.112C363.532 107.112 361.072 106.62 359.145 105.636C355.578 106.374 354.266 109.49 358.612 109.9C364.721 110.433 380.137 107.809 379.563 119.125C379.276 125.152 372.962 128.063 366.73 128.104C360.375 128.145 354.02 125.152 354.225 119.33C354.266 117.649 355.619 116.829 357.054 116.829C358.571 116.829 360.211 117.854 360.129 119.822C360.047 121.175 359.637 121.831 360.211 123.348C361.113 125.726 363.86 126.915 366.689 126.874C370.871 126.874 375.258 124.209 374.561 118.838C373.987 114.41 368.247 114.82 362.958 114.82C361.031 114.82 359.186 114.738 357.669 114.41C351.478 112.975 353.077 106.046 358.161 104.98C349.797 98.748 356.07 87.719 365.869 87.76C369.682 87.76 371.855 88.867 374.684 91.122C375.053 91.204 375.381 91.245 375.668 91.245C377.144 91.245 377.964 90.138 378.046 88.498C378.169 86.407 376.898 84.972 376.898 83.537ZM365.623 105.431C372.634 105.349 372.839 89.072 365.869 88.99C357.874 88.867 358.284 105.513 365.623 105.431ZM435.054 113.385V114.041C431.405 114.082 427.797 114.041 424.066 114.041V113.385C424.763 113.385 426.608 113.426 426.608 112.032C426.731 106.907 426.772 101.782 426.772 96.616C426.772 94.238 426.977 88.908 423.492 88.949C419.269 89.031 416.973 94.361 416.645 98.092C416.727 102.643 416.645 107.276 416.686 111.827C416.686 113.426 418.654 113.385 419.556 113.385V114.041C415.907 114.082 412.217 114.082 408.527 114.041V113.385C409.224 113.385 411.11 113.385 411.11 112.032C411.233 106.907 411.274 101.782 411.274 96.616C411.274 94.238 411.479 88.908 407.953 88.949C403.525 89.031 401.229 94.935 401.106 98.707C401.106 103.094 401.106 107.522 401.147 111.95C401.147 113.385 403.115 113.385 404.058 113.426V114.041C400.368 114.082 396.719 114.082 393.029 114.041V113.426C394.054 113.385 395.612 113.426 395.612 112.114C395.735 105.021 395.735 97.969 395.735 90.876C395.735 89.277 393.89 89.318 393.029 89.277V88.621C395.776 88.621 398.441 88.58 401.188 88.621L401.106 93.828C402.336 90.466 404.919 87.719 408.896 87.719C412.914 87.801 415.62 90.261 416.399 94.279C417.547 90.63 420.048 87.678 424.394 87.719C429.929 87.801 431.938 91.45 432.102 96.534C432.266 101.577 432.184 106.743 432.184 111.827C432.184 113.385 434.152 113.385 435.054 113.385ZM441.067 85.833C439.345 85.833 437.951 84.357 437.951 82.594C437.951 80.872 439.345 79.437 441.067 79.437C442.789 79.437 444.183 80.872 444.183 82.594C444.183 84.357 442.789 85.833 441.067 85.833ZM447.053 113.426V114.041C443.363 114.082 439.714 114.082 436.024 114.041V113.426C437.049 113.385 438.607 113.426 438.607 112.114C438.73 105.021 438.73 97.969 438.73 90.876C438.73 89.277 436.885 89.318 436.024 89.277V88.621C438.771 88.621 441.436 88.58 444.183 88.621C444.06 96.411 444.06 104.16 444.142 111.95C444.142 113.426 446.11 113.385 447.053 113.426ZM467.765 106.62H468.708C468.708 112.483 464.936 114.902 461.041 114.902C454.317 114.943 452.185 110.064 452.185 104.242V90.056H448.003V88.58C451.939 88.58 455.178 84.726 455.055 81.2H457.556C457.556 83.373 457.515 86.366 457.474 88.58H463.993V90.056H457.433C457.433 94.607 457.474 99.158 457.474 103.996C457.433 110.515 460.18 113.262 462.845 113.221C465.346 113.18 467.724 110.72 467.765 106.62ZM271.4 129.599H271.441V130.255C268.571 130.255 268.284 130.296 265.947 136.733C262.134 147.598 258.731 157.93 254.877 169.041H254.221C252.991 165.433 246.267 147.393 242.741 138.045C239.42 148.131 235.607 160.431 232.655 169.041H231.958C230.564 164.818 221.626 140.956 219.002 134.232C217.731 130.911 217.403 130.255 214.328 130.255V129.558H227.161V130.255C223.717 130.255 224.086 131.69 225.152 135.011C227.858 143.416 231.548 151.78 234.582 160.103C236.304 155.183 241.839 137.512 244.545 129.558H245.283C248.235 138.209 253.975 152.272 256.804 160.103C258.608 155.06 262.421 143.826 265.209 135.831C267.136 130.173 265.25 130.255 262.708 130.255V129.599C265.496 129.599 268.653 129.558 271.4 129.599ZM274.265 140.833C272.543 140.833 271.149 139.357 271.149 137.594C271.149 135.872 272.543 134.437 274.265 134.437C275.987 134.437 277.381 135.872 277.381 137.594C277.381 139.357 275.987 140.833 274.265 140.833ZM280.251 168.426V169.041C276.561 169.082 272.912 169.082 269.222 169.041V168.426C270.247 168.385 271.805 168.426 271.805 167.114C271.928 160.021 271.928 152.969 271.928 145.876C271.928 144.277 270.083 144.318 269.222 144.277V143.621C271.969 143.621 274.634 143.58 277.381 143.621C277.258 151.411 277.258 159.16 277.34 166.95C277.34 168.426 279.308 168.385 280.251 168.426ZM298.953 142.719C301.577 142.719 304.324 144.646 304.529 147.434C304.652 149.197 303.791 151.124 301.618 151.124C298.666 151.124 298.953 146.368 295.919 146.368C292.803 146.368 289.892 152.026 289.318 154.65C289.318 158.75 289.359 162.809 289.4 166.95C289.4 168.385 291.368 168.385 292.27 168.385H292.311V169.041H281.282V168.385C282.266 168.385 283.824 168.385 283.824 167.073C283.947 160.021 283.947 152.928 283.947 145.876C283.947 144.277 282.061 144.277 281.2 144.277V143.58H289.359C289.318 146.204 289.318 148.787 289.318 151.37C290.999 147.106 294.443 142.719 298.953 142.719ZM333.702 168.426V169.041H333.661C329.479 169.082 325.297 169.082 321.074 169.041V168.385C323.452 168.385 323.329 167.401 322.263 165.761L315.006 154.814H313.94L314.022 166.827C314.063 168.426 316.031 168.385 316.933 168.426V169.041C313.243 169.082 309.594 169.082 305.904 169.041V168.426C306.642 168.385 308.569 168.426 308.569 166.991C308.815 155.306 308.692 143.539 308.692 131.854C308.692 130.255 307.257 130.255 305.986 130.255V129.599L306.027 129.558C308.733 129.599 311.398 129.558 314.104 129.558C313.981 137.676 313.94 145.835 313.94 153.994L317.138 153.748C319.639 151.288 321.566 149.197 323.452 147.311C324.846 145.917 324.313 144.277 322.222 144.277L322.181 143.621H330.791V144.277C328.208 144.277 326.404 145.835 324.682 147.598L320.049 152.395L327.593 163.998C329.028 166.13 330.709 168.385 333.661 168.385L333.702 168.426ZM359.417 168.385V169.041H351.258C351.299 167.401 351.34 165.761 351.34 164.162C350.151 167.401 347.773 169.902 343.755 169.943C338.138 169.943 336.006 166.212 335.842 161.046C335.678 156.003 335.842 150.919 335.801 145.835C335.76 144.523 333.874 144.277 332.931 144.277H332.89V143.58H343.919V144.277H343.878C342.894 144.277 341.377 144.277 341.336 145.835C341.254 150.878 341.213 155.88 341.213 160.964C341.213 163.342 341.008 168.672 344.493 168.672C348.921 168.672 351.258 162.604 351.381 158.873C351.381 154.486 351.34 150.14 351.299 145.712C351.299 144.441 349.167 144.277 348.429 144.277L348.388 143.621C348.388 143.621 348.388 143.58 348.429 143.58H359.417V144.277C358.638 144.277 356.875 144.441 356.875 145.671C356.711 152.682 356.711 159.734 356.711 166.786C356.711 168.098 358.556 168.344 359.417 168.385ZM387.164 168.385V169.041H376.135V168.385C376.832 168.385 378.718 168.385 378.718 167.032C378.841 161.907 378.882 156.741 378.882 151.616C378.882 149.197 379.087 143.908 375.561 143.949C371.133 144.031 368.796 149.976 368.714 153.707C368.714 158.094 368.714 162.522 368.755 166.95C368.755 168.385 370.723 168.385 371.666 168.385V169.041H360.637V168.385C361.662 168.385 363.22 168.385 363.22 167.073C363.343 160.021 363.343 152.928 363.343 145.876C363.343 144.277 361.498 144.277 360.637 144.277V143.58H368.796L368.714 148.582C369.944 145.302 372.404 142.719 376.381 142.719C381.957 142.719 384.048 146.368 384.212 151.534C384.376 156.577 384.294 161.743 384.294 166.786C384.294 168.385 386.262 168.385 387.164 168.385ZM412.493 138.537C412.493 136.856 413.682 135.995 414.953 135.995C416.429 135.995 417.987 137.184 417.823 139.644C417.577 143.375 414.953 146.737 411.222 147.229C416.142 154.609 409.582 162.153 401.259 162.112C399.127 162.112 396.667 161.62 394.74 160.636C391.173 161.374 389.861 164.49 394.207 164.9C400.316 165.433 415.732 162.809 415.158 174.125C414.871 180.152 408.557 183.063 402.325 183.104C395.97 183.145 389.615 180.152 389.82 174.33C389.861 172.649 391.214 171.829 392.649 171.829C394.166 171.829 395.806 172.854 395.724 174.822C395.642 176.175 395.232 176.831 395.806 178.348C396.708 180.726 399.455 181.915 402.284 181.874C406.466 181.874 410.853 179.209 410.156 173.838C409.582 169.41 403.842 169.82 398.553 169.82C396.626 169.82 394.781 169.738 393.264 169.41C387.073 167.975 388.672 161.046 393.756 159.98C385.392 153.748 391.665 142.719 401.464 142.76C405.277 142.76 407.45 143.867 410.279 146.122C410.648 146.204 410.976 146.245 411.263 146.245C412.739 146.245 413.559 145.138 413.641 143.498C413.764 141.407 412.493 139.972 412.493 138.537ZM401.218 160.431C408.229 160.349 408.434 144.072 401.464 143.99C393.469 143.867 393.879 160.513 401.218 160.431ZM450.723 154.937L435.512 154.773C435.471 155.306 435.43 155.798 435.43 156.208C435.43 162.071 437.726 167.811 442.769 167.811C445.475 167.811 448.878 165.269 450.231 161.251C450.354 160.923 450.559 160.8 450.764 160.8C451.051 160.8 451.297 161.128 451.092 161.702C449.452 166.212 446.5 169.902 440.76 169.902C432.97 169.902 429.239 163.711 429.28 157.192C429.362 149.853 434.487 142.842 441.99 142.76C449.124 142.678 450.723 149.402 450.723 154.937ZM435.594 153.83C437.439 153.83 440.104 153.83 441.908 153.42C445.762 152.518 446.869 149.32 445.311 146.04C444.737 144.851 443.179 143.99 441.99 144.031C438.095 144.113 436.209 149.853 435.594 153.83ZM456.656 163.834C458.091 163.834 459.239 165.064 459.239 166.581C459.239 168.098 458.091 169.328 456.656 169.328C455.221 169.328 454.073 168.098 454.073 166.581C454.073 165.064 455.221 163.834 456.656 163.834ZM496.059 129.599V130.255C492.041 130.255 491.959 132.961 490.565 136.733C486.752 147.598 483.349 157.93 479.536 169.041H478.839C477.445 164.818 468.507 140.956 465.883 134.232C464.612 130.911 464.284 130.255 461.209 130.255V129.558H474.042V130.255C470.598 130.255 470.967 131.69 472.033 135.011C474.739 143.416 478.429 151.78 481.463 160.103C483.267 155.06 487.039 143.826 489.827 135.831C491.672 130.542 489.868 130.255 487.326 130.255V129.599C490.114 129.599 493.271 129.558 496.059 129.599ZM500.619 163.834C502.054 163.834 503.202 165.064 503.202 166.581C503.202 168.098 502.054 169.328 500.619 169.328C499.184 169.328 498.036 168.098 498.036 166.581C498.036 165.064 499.184 163.834 500.619 163.834Z" fill="#EBC528"/>
<defs>
<linearGradient id="paint0_linear_11_14" x1="83.5" y1="207" x2="84" y2="254.5" gradientUnits="userSpaceOnUse">
<stop stop-color="#FCEC80"/>
<stop offset="0.432692" stop-color="#D38D00"/>
<stop offset="1" stop-color="#FCEC80"/>
</linearGradient>
<linearGradient id="paint1_linear_11_14" x1="37.5" y1="68" x2="37.5" y2="190" gradientUnits="userSpaceOnUse">
<stop stop-color="#FCEC80"/>
<stop offset="0.411814" stop-color="#FFC115"/>
<stop offset="0.585111" stop-color="#E6AE06"/>
<stop offset="0.9999" stop-color="#E1AC2B"/>
<stop offset="1" stop-color="#FCEC80"/>
</linearGradient>
<linearGradient id="paint2_linear_11_14" x1="127.5" y1="68" x2="127.5" y2="190" gradientUnits="userSpaceOnUse">
<stop stop-color="#FCEC80"/>
<stop offset="0.411814" stop-color="#FFC115"/>
<stop offset="0.585111" stop-color="#E6AE06"/>
<stop offset="0.9999" stop-color="#E1AC2B"/>
<stop offset="1" stop-color="#FCEC80"/>
</linearGradient>
<linearGradient id="paint3_linear_11_14" x1="82.5" y1="0" x2="83" y2="106.5" gradientUnits="userSpaceOnUse">
<stop stop-color="#FCEC80"/>
<stop offset="0.425907" stop-color="#DB9F19"/>
<stop offset="0.569569" stop-color="#D38D00"/>
<stop offset="0.713231" stop-color="#DCA21D"/>
<stop offset="1" stop-color="#FCEC80"/>
</linearGradient>
</defs>
</svg>
